<?xml version="1.0" encoding="utf-8"?>
<!-- Generator: Adobe Illustrator 16.0.0, SVG Export Plug-In . SVG Version: 6.00 Build 0)  -->
<!DOCTYPE svg PUBLIC "-//W3C//DTD SVG 1.1//EN" "http://www.w3.org/Graphics/SVG/1.1/DTD/svg11.dtd">
<svg version="1.1" id="Layer_1" xmlns="http://www.w3.org/2000/svg" xmlns:xlink="http://www.w3.org/1999/xlink" x="0px" y="0px"
	 width="30px" height="30px" viewBox="0 0 30 30" enable-background="new 0 0 30 30" xml:space="preserve">
<g>
	<g>
		<g>
			<path fill="#CD4A27" d="M28.65,1.754c-0.03-0.237-0.217-0.425-0.454-0.454c-2.14-0.264-4.348-0.034-6.386,0.667
				c-2.039,0.701-3.921,1.877-5.445,3.401l-3.479,3.478l-5.02,0.648C7.752,9.509,7.646,9.561,7.564,9.642l-4.84,4.841
				c-0.137,0.137-0.188,0.338-0.13,0.523s0.213,0.323,0.403,0.358l3.66,0.678l0.719,0.719L5.846,17.59
				c-0.145,0.079-0.244,0.221-0.268,0.385c-0.023,0.163,0.031,0.327,0.147,0.444l5.806,5.805c0.099,0.099,0.232,0.153,0.37,0.153
				c0.025,0,0.05-0.001,0.075-0.005c0.163-0.024,0.306-0.123,0.384-0.268l0.829-1.531l0.719,0.719l0.678,3.66
				c0.035,0.191,0.173,0.345,0.358,0.403c0.051,0.016,0.103,0.023,0.155,0.023c0.137,0,0.27-0.053,0.369-0.152l4.84-4.84
				c0.082-0.082,0.134-0.188,0.149-0.302l0.648-5.021l3.478-3.478c1.523-1.524,2.7-3.407,3.4-5.445S28.915,3.894,28.65,1.754z
				 M6.738,14.996L4.164,14.52l4.013-4.013l3.503-0.452L6.738,14.996z M11.775,22.992l-4.816-4.817l1.188-0.643l4.271,4.271
				L11.775,22.992z M19.444,21.774l-4.013,4.013l-0.477-2.574l4.942-4.942L19.444,21.774z M23.844,12.848L14.391,22.3L7.65,15.559
				l9.453-9.453c1.374-1.373,3.062-2.44,4.892-3.096c0.235,1.217,0.831,2.346,1.715,3.23c0.885,0.884,2.013,1.479,3.23,1.715
				C26.286,9.785,25.217,11.473,23.844,12.848z M27.254,6.954c-1.058-0.181-2.042-0.687-2.806-1.451
				c-0.765-0.765-1.271-1.749-1.451-2.807c1.512-0.408,3.101-0.547,4.662-0.404C27.801,3.852,27.662,5.441,27.254,6.954z"/>
			<path fill="#CD4A27" d="M16.594,8.879c-1.234,1.235-1.234,3.243,0,4.478c0.617,0.617,1.427,0.926,2.238,0.926
				c0.811,0,1.623-0.309,2.24-0.926l0,0c1.234-1.234,1.234-3.243,0-4.478C19.837,7.645,17.829,7.645,16.594,8.879z M20.333,12.619
				c-0.827,0.827-2.173,0.827-3.001,0c-0.828-0.828-0.828-2.174,0-3.001c0.415-0.414,0.958-0.621,1.5-0.621
				c0.545,0,1.088,0.207,1.501,0.621C21.161,10.444,21.161,11.791,20.333,12.619z"/>
			<path fill="#CD4A27" d="M8.039,22.011c-0.205-0.204-0.535-0.204-0.738,0l-4.478,4.478c-0.204,0.203-0.204,0.534,0,0.737
				c0.102,0.103,0.236,0.152,0.37,0.152c0.133,0,0.267-0.05,0.369-0.152l4.478-4.477C8.242,22.545,8.242,22.214,8.039,22.011z"/>
			<path fill="#CD4A27" d="M8.727,23.438L6.71,25.456c-0.204,0.203-0.204,0.534,0,0.737c0.102,0.102,0.235,0.153,0.369,0.153
				s0.267-0.051,0.369-0.153l2.017-2.018c0.204-0.203,0.204-0.534,0-0.737C9.261,23.233,8.931,23.233,8.727,23.438z"/>
			<path fill="#CD4A27" d="M6.003,26.377c-0.219,0-0.418,0.141-0.491,0.346c-0.075,0.208-0.005,0.448,0.167,0.585
				c0.178,0.141,0.437,0.149,0.621,0.019c0.198-0.139,0.278-0.404,0.184-0.628C6.408,26.507,6.21,26.377,6.003,26.377z"/>
			<path fill="#CD4A27" d="M6.485,26.699C6.498,26.731,6.473,26.669,6.485,26.699L6.485,26.699z"/>
			<path fill="#CD4A27" d="M4.527,27.638L4.25,27.916c-0.204,0.204-0.204,0.534,0,0.738c0.102,0.102,0.235,0.153,0.369,0.153
				s0.267-0.05,0.369-0.153l0.277-0.278c0.204-0.204,0.204-0.535,0-0.738C5.062,27.434,4.731,27.434,4.527,27.638z"/>
			<path fill="#CD4A27" d="M4.151,23.045c-0.204-0.206-0.534-0.206-0.738,0l-2.017,2.017c-0.204,0.204-0.204,0.534,0,0.738
				c0.102,0.102,0.235,0.153,0.369,0.153s0.267-0.051,0.369-0.153l2.017-2.018C4.354,23.579,4.354,23.248,4.151,23.045z"/>
			<path fill="#CD4A27" d="M4.984,22.843c0.212-0.052,0.371-0.237,0.393-0.455c0.022-0.212-0.095-0.42-0.285-0.516
				c-0.202-0.103-0.454-0.059-0.61,0.104c-0.167,0.174-0.191,0.447-0.059,0.649c-0.004-0.007-0.007-0.011,0.001,0.001
				c0.009,0.013,0.005,0.009,0.001,0.002C4.547,22.809,4.772,22.897,4.984,22.843z"/>
			<path fill="#CD4A27" d="M6.333,21.599l0.278-0.277c0.204-0.204,0.204-0.535,0-0.739c-0.204-0.203-0.535-0.203-0.739,0
				l-0.277,0.279c-0.204,0.203-0.204,0.534,0,0.737c0.102,0.103,0.235,0.153,0.369,0.153C6.098,21.752,6.231,21.702,6.333,21.599z"
				/>
		</g>
	</g>
</g>
</svg>
