<?xml version="1.0" encoding="utf-8"?>
<!-- Generator: Adobe Illustrator 16.0.0, SVG Export Plug-In . SVG Version: 6.00 Build 0)  -->
<!DOCTYPE svg PUBLIC "-//W3C//DTD SVG 1.1//EN" "http://www.w3.org/Graphics/SVG/1.1/DTD/svg11.dtd">
<svg version="1.1" id="Layer_1" xmlns="http://www.w3.org/2000/svg" xmlns:xlink="http://www.w3.org/1999/xlink" x="0px" y="0px"
	 width="30px" height="30px" viewBox="0 0 30 30" enable-background="new 0 0 30 30" xml:space="preserve">
<g>
	<g>
		<g>
			<path fill="#CD4A27" d="M28.617,28.828h-1.285v-18.66c0-0.868-0.707-1.575-1.574-1.575h-2.873c-0.869,0-1.576,0.707-1.576,1.575
				v18.66h-3.262V18.623c0-0.869-0.707-1.576-1.576-1.576H13.6c-0.869,0-1.576,0.707-1.576,1.576v10.205H8.761v-5.285
				c0-0.869-0.706-1.575-1.575-1.575H4.312c-0.868,0-1.574,0.706-1.574,1.575v5.285H1.383c-0.323,0-0.586,0.262-0.586,0.586
				S1.06,30,1.383,30h27.234c0.324,0,0.586-0.262,0.586-0.586S28.941,28.828,28.617,28.828z M7.588,28.828H3.91v-5.285
				c0-0.223,0.18-0.403,0.402-0.403h2.873c0.223,0,0.402,0.181,0.402,0.403V28.828z M16.875,28.828h-3.68V18.623
				c0-0.223,0.182-0.404,0.404-0.404h2.871c0.223,0,0.404,0.182,0.404,0.404V28.828z M26.16,28.828h-3.68v-18.66
				c0-0.222,0.182-0.403,0.404-0.403h2.873c0.223,0,0.402,0.182,0.402,0.403V28.828z"/>
		</g>
	</g>
	<g>
		<g>
			<path fill="#CD4A27" d="M27.33,0.616c0.01-0.16-0.047-0.322-0.17-0.445c-0.121-0.121-0.283-0.178-0.443-0.17
				c-0.01,0-0.02-0.001-0.029-0.001h-3.545c-0.324,0-0.586,0.263-0.586,0.586s0.262,0.586,0.586,0.586h2.189l-5.793,5.792
				L17.355,4.78c-0.111-0.11-0.26-0.172-0.414-0.172c-0.156,0-0.305,0.062-0.416,0.172L5.993,15.313c-0.229,0.229-0.229,0.6,0,0.829
				c0.114,0.113,0.265,0.171,0.415,0.171c0.149,0,0.299-0.058,0.414-0.171l10.119-10.12l2.184,2.185c0.229,0.229,0.6,0.229,0.828,0
				l6.207-6.206v1.98c0,0.324,0.262,0.586,0.586,0.586s0.586-0.262,0.586-0.586V0.645C27.332,0.635,27.332,0.626,27.33,0.616z"/>
		</g>
	</g>
	<g>
		<g>
			<circle fill="#CD4A27" cx="4.433" cy="17.771" r="0.586"/>
		</g>
	</g>
</g>
</svg>
