<?xml version="1.0" encoding="utf-8"?>
<!-- Generator: Adobe Illustrator 16.0.0, SVG Export Plug-In . SVG Version: 6.00 Build 0)  -->
<!DOCTYPE svg PUBLIC "-//W3C//DTD SVG 1.1//EN" "http://www.w3.org/Graphics/SVG/1.1/DTD/svg11.dtd">
<svg version="1.1" id="Layer_1" xmlns="http://www.w3.org/2000/svg" xmlns:xlink="http://www.w3.org/1999/xlink" x="0px" y="0px"
	 width="30px" height="30px" viewBox="0 0 30 30" enable-background="new 0 0 30 30" xml:space="preserve">
<g>
	<g>
		<g>
			<path fill="#CD4A27" d="M29.402,11.043h-0.4c-0.391-1.979-2.392-5.465-3.277-6.941c0.416-0.286,0.688-0.764,0.688-1.305
				c0-0.873-0.71-1.583-1.583-1.583s-1.584,0.71-1.584,1.583c0,0.541,0.273,1.02,0.688,1.305c-0.886,1.477-2.887,4.962-3.276,6.941
				h-0.401c-0.329,0-0.597,0.268-0.597,0.598c0,2.851,2.318,5.17,5.17,5.17c2.851,0,5.17-2.319,5.17-5.17
				C30,11.311,29.732,11.043,29.402,11.043z M24.83,2.408c0.213,0,0.388,0.174,0.388,0.388c0,0.214-0.175,0.388-0.388,0.388
				c-0.215,0-0.389-0.174-0.389-0.388C24.441,2.583,24.615,2.408,24.83,2.408z M24.828,4.934c1.012,1.707,2.574,4.55,2.957,6.109
				h-5.91C22.238,9.583,23.643,6.926,24.828,4.934z M24.83,15.615c-1.989,0-3.642-1.468-3.931-3.377h7.86
				C28.471,14.147,26.818,15.615,24.83,15.615z"/>
		</g>
	</g>
	<g>
		<g>
			<path fill="#CD4A27" d="M20.319,25.352h-1.58v-1.518c0-0.33-0.268-0.598-0.598-0.598h-1.518V6.543
				c0.392-0.386,0.643-0.913,0.672-1.498l2.526-0.544c0.323-0.069,0.528-0.387,0.459-0.71s-0.387-0.528-0.71-0.458l-2.532,0.545
				c-0.381-0.722-1.138-1.215-2.008-1.215c-1.205,0-2.193,0.945-2.264,2.134l-6.318,1.36C6.16,5.763,5.695,5.506,5.17,5.506
				c-0.873,0-1.583,0.71-1.583,1.583c0,0.541,0.272,1.02,0.688,1.305c-0.886,1.477-2.887,4.962-3.277,6.941h-0.4
				C0.268,15.336,0,15.604,0,15.934c0,2.851,2.319,5.17,5.17,5.17c2.852,0,5.17-2.319,5.17-5.17c0-0.33-0.268-0.598-0.597-0.598
				H9.342c-0.39-1.979-2.391-5.465-3.276-6.941C6.421,8.15,6.672,7.764,6.736,7.318l6.278-1.351c0.11,0.214,0.254,0.409,0.423,0.577
				v16.693H11.92c-0.33,0-0.598,0.268-0.598,0.598v1.518H9.743c-0.33,0-0.598,0.268-0.598,0.598v2.24
				c0,0.33,0.268,0.598,0.598,0.598h10.576c0.33,0,0.598-0.268,0.598-0.598v-2.24C20.917,25.619,20.649,25.352,20.319,25.352z
				 M5.17,6.701c0.215,0,0.389,0.174,0.389,0.388S5.385,7.478,5.17,7.478c-0.214,0-0.388-0.174-0.388-0.388S4.956,6.701,5.17,6.701z
				 M5.17,19.908c-1.988,0-3.641-1.468-3.93-3.377h7.86C8.812,18.44,7.159,19.908,5.17,19.908z M8.127,15.336H2.216
				c0.362-1.46,1.769-4.117,2.954-6.109C6.181,10.934,7.742,13.777,8.127,15.336z M15.031,3.858c0.592,0,1.072,0.481,1.072,1.073
				s-0.48,1.072-1.072,1.072s-1.072-0.481-1.072-1.072S14.439,3.858,15.031,3.858z M15.429,7.163v16.073h-0.796V7.163
				c0.13,0.023,0.263,0.036,0.398,0.036S15.3,7.186,15.429,7.163z M12.518,24.432h5.026v0.92h-5.026V24.432z M19.722,27.592h-9.381
				v-1.045h9.381V27.592z"/>
		</g>
	</g>
	<g>
		<g>
			<path fill="#CD4A27" d="M22.583,3.333c-0.069-0.323-0.388-0.528-0.71-0.458l-0.436,0.093c-0.322,0.07-0.527,0.388-0.459,0.71
				c0.061,0.28,0.309,0.472,0.584,0.472c0.042,0,0.084-0.004,0.127-0.014l0.436-0.093C22.447,3.974,22.652,3.656,22.583,3.333z"/>
		</g>
	</g>
</g>
</svg>
