<?xml version="1.0" encoding="utf-8"?>
<!-- Generator: Adobe Illustrator 16.0.0, SVG Export Plug-In . SVG Version: 6.00 Build 0)  -->
<!DOCTYPE svg PUBLIC "-//W3C//DTD SVG 1.1//EN" "http://www.w3.org/Graphics/SVG/1.1/DTD/svg11.dtd">
<svg version="1.1" id="Layer_1" xmlns="http://www.w3.org/2000/svg" xmlns:xlink="http://www.w3.org/1999/xlink" x="0px" y="0px"
	 width="30px" height="30px" viewBox="0 0 30 30" enable-background="new 0 0 30 30" xml:space="preserve">
<g>
	<g>
		<path fill="#CD4A27" d="M29.58,4.254l-3.835-3.835c-0.559-0.559-1.468-0.559-2.026,0l-7.221,7.222
			c-0.182,0.181-0.182,0.474,0,0.654c0.181,0.181,0.474,0.181,0.654,0l7.221-7.221c0.096-0.096,0.224-0.148,0.359-0.148
			c0.135,0,0.262,0.053,0.357,0.148l3.836,3.835c0.096,0.096,0.148,0.224,0.148,0.358s-0.053,0.263-0.148,0.358l-0.941,0.94
			l-2.466-2.465c-0.181-0.182-0.474-0.182-0.655,0c-0.181,0.18-0.181,0.474,0,0.654l2.467,2.466l-1.076,1.075L25.17,7.213
			c-0.18-0.18-0.473-0.18-0.654,0c-0.181,0.182-0.181,0.475,0,0.655L25.6,8.952l-1.075,1.075L23.44,8.943
			c-0.181-0.181-0.474-0.181-0.655,0c-0.18,0.182-0.18,0.475,0,0.655l1.084,1.083l-1.075,1.076l-2.466-2.467
			c-0.182-0.18-0.475-0.181-0.654,0c-0.182,0.182-0.182,0.475,0,0.655l2.465,2.466l-1.074,1.076l-1.084-1.084
			c-0.182-0.182-0.475-0.182-0.655,0c-0.181,0.181-0.181,0.474,0,0.654l1.084,1.084l-0.909,0.91L14.947,10.5l0.847-0.847
			c0.181-0.181,0.181-0.474,0-0.655c-0.181-0.18-0.474-0.18-0.655,0l-0.846,0.848L5.752,1.305C5.157,0.711,4.367,0.383,3.527,0.383
			s-1.63,0.328-2.224,0.922C0.709,1.898,0.383,2.688,0.383,3.528c0,0.841,0.326,1.63,0.921,2.224l8.541,8.541L0.42,23.719
			c-0.559,0.559-0.559,1.467,0,2.026l3.835,3.835C4.525,29.852,4.885,30,5.268,30s0.742-0.148,1.014-0.42l9.425-9.425l0.671,0.671
			c0.182,0.182,0.475,0.182,0.655,0c0.181-0.181,0.181-0.474,0-0.654l-0.927-0.927c-0.018-0.028-0.039-0.056-0.063-0.081
			c-0.024-0.024-0.052-0.045-0.081-0.063L5.93,9.068l1.241-1.242l0.768,0.768C8.029,8.685,8.147,8.73,8.266,8.73
			c0.119,0,0.237-0.046,0.328-0.137c0.18-0.181,0.18-0.474,0-0.654L7.826,7.172L9.067,5.93l4.897,4.897c0,0.001,0,0.001,0,0.001
			s0,0,0.001,0l5.161,5.161c0.013,0.017,0.026,0.034,0.041,0.049c0.016,0.016,0.032,0.029,0.049,0.042l6.871,6.871l-1.241,1.242
			l-6.933-6.934c-0.004-0.004-0.008-0.009-0.012-0.014l-2.766-2.764c-0.004-0.005-0.009-0.009-0.014-0.014L10.24,9.586
			c-0.182-0.181-0.475-0.181-0.655,0s-0.181,0.475,0,0.654l14.606,14.607L22.95,26.09l-4.4-4.4c-0.181-0.182-0.474-0.182-0.655,0
			c-0.18,0.181-0.18,0.474,0,0.654l4.729,4.728c0.045,0.045,0.1,0.081,0.16,0.104l5.594,2.172c0.088,0.034,0.18,0.051,0.271,0.051
			c0.195,0,0.389-0.076,0.531-0.221c0.211-0.21,0.277-0.525,0.169-0.803l-2.174-5.592c-0.023-0.059-0.06-0.115-0.104-0.16
			l-6.916-6.916l9.426-9.426C30.139,5.723,30.139,4.812,29.58,4.254z M15.052,19.5l-0.909,0.908l-1.084-1.084
			c-0.18-0.18-0.473-0.18-0.654,0c-0.181,0.182-0.181,0.475,0,0.655l1.084,1.084l-1.075,1.075l-2.466-2.466
			c-0.182-0.181-0.475-0.181-0.655,0s-0.181,0.474,0,0.655l2.466,2.466l-1.075,1.075l-1.084-1.084c-0.181-0.181-0.474-0.181-0.654,0
			c-0.181,0.182-0.181,0.475,0,0.654l1.083,1.084L8.953,25.6l-1.084-1.084c-0.182-0.182-0.475-0.182-0.655,0
			c-0.181,0.181-0.181,0.474,0,0.654l1.084,1.084L7.223,27.33l-2.467-2.467c-0.18-0.181-0.474-0.181-0.654,0s-0.181,0.475,0,0.654
			l2.467,2.467l-0.941,0.941c-0.096,0.096-0.224,0.148-0.359,0.148c-0.135,0-0.262-0.053-0.357-0.148L1.074,25.09
			c-0.197-0.197-0.197-0.52,0-0.717l9.426-9.425L15.052,19.5z M1.959,5.098c-0.865-0.865-0.865-2.273,0-3.139s2.272-0.865,3.138,0
			l1.464,1.464L3.422,6.561L1.959,5.098z M6.844,6.844L6.844,6.844C6.844,6.844,6.844,6.844,6.844,6.844L5.274,8.413L4.076,7.216
			l3.139-3.138l1.197,1.197L6.844,6.844z M28.342,28.341l-4.562-1.771l2.789-2.789L28.342,28.341z"/>
	</g>
</g>
</svg>
