<?xml version="1.0" encoding="utf-8"?>
<!-- Generator: Adobe Illustrator 16.0.0, SVG Export Plug-In . SVG Version: 6.00 Build 0)  -->
<!DOCTYPE svg PUBLIC "-//W3C//DTD SVG 1.1//EN" "http://www.w3.org/Graphics/SVG/1.1/DTD/svg11.dtd">
<svg version="1.1" id="Layer_1" xmlns="http://www.w3.org/2000/svg" xmlns:xlink="http://www.w3.org/1999/xlink" x="0px" y="0px"
	 width="30px" height="30px" viewBox="0 0 30 30" enable-background="new 0 0 30 30" xml:space="preserve">
<g>
	<g>
		<g>
			<path fill="#CD4A27" d="M20.273,18.691c-0.324,0-0.586,0.262-0.586,0.586v4.043c0,1.615-1.314,2.93-2.93,2.93h-6.326
				c-0.324,0-0.586,0.262-0.586,0.586L9.845,28l-1.398-1.398c-0.091-0.207-0.298-0.352-0.537-0.352H4.102
				c-1.615,0-2.93-1.314-2.93-2.93v-9.023c0-1.615,1.314-2.93,2.93-2.93h5.918c0.324,0,0.586-0.263,0.586-0.586
				s-0.262-0.586-0.586-0.586H4.102C1.84,10.195,0,12.035,0,14.297v9.023c0,2.262,1.84,4.102,4.102,4.102h3.508l2.406,2.406
				C10.127,29.94,10.277,30,10.43,30c0.076,0,0.152-0.015,0.225-0.045c0.219-0.09,0.361-0.304,0.361-0.541l0.002-1.992h5.74
				c2.262,0,4.102-1.84,4.102-4.102v-4.043C20.859,18.953,20.598,18.691,20.273,18.691z"/>
		</g>
	</g>
	<g>
		<g>
			<path fill="#CD4A27" d="M21.484,0h-1.483c-4.696,0-8.517,3.82-8.517,8.517c0,4.695,3.82,8.517,8.516,8.517h1.483
				c0.733,0,1.458-0.094,2.161-0.277l2.191,2.189c0.111,0.111,0.262,0.172,0.414,0.172c0.076,0,0.152-0.016,0.225-0.045
				c0.219-0.092,0.361-0.305,0.361-0.541v-3.391c0.928-0.751,1.697-1.7,2.238-2.76C29.688,11.177,30,9.876,30,8.517
				C30,3.82,26.18,0,21.484,0z M25.897,14.387c-0.147,0.11-0.233,0.284-0.233,0.468v2.263l-1.434-1.434
				c-0.111-0.111-0.262-0.172-0.414-0.172c-0.058,0-0.115,0.009-0.172,0.026c-0.698,0.214-1.425,0.323-2.16,0.323h-1.483
				c-4.05,0-7.345-3.296-7.345-7.345c0-4.05,3.295-7.345,7.345-7.345h1.483c4.049,0,7.344,3.295,7.344,7.345
				C28.828,10.845,27.76,12.983,25.897,14.387z"/>
		</g>
	</g>
	<g>
		<g>
			<path fill="#CD4A27" d="M23.381,6.411c-0.084-1.227-1.073-2.216-2.301-2.3c-0.695-0.048-1.358,0.188-1.866,0.661
				C18.713,5.24,18.426,5.9,18.426,6.586c0,0.323,0.262,0.586,0.586,0.586c0.323,0,0.586-0.263,0.586-0.586
				c0-0.367,0.147-0.707,0.416-0.957C20.281,5.379,20.632,5.255,21,5.28c0.646,0.045,1.167,0.565,1.212,1.212
				c0.045,0.652-0.384,1.229-1.019,1.371C20.68,7.979,20.32,8.425,20.32,8.95v1.408c0,0.323,0.262,0.586,0.586,0.586
				s0.586-0.263,0.586-0.586V8.997C22.673,8.712,23.465,7.632,23.381,6.411z"/>
		</g>
	</g>
	<g>
		<g>
			<path fill="#CD4A27" d="M21.32,12.261c-0.109-0.108-0.26-0.171-0.414-0.171s-0.305,0.062-0.414,0.171
				c-0.109,0.109-0.172,0.261-0.172,0.415s0.062,0.306,0.172,0.415c0.109,0.108,0.26,0.171,0.414,0.171s0.305-0.062,0.414-0.171
				c0.109-0.109,0.172-0.261,0.172-0.415S21.43,12.37,21.32,12.261z"/>
		</g>
	</g>
	<g>
		<g>
			<path fill="#CD4A27" d="M16.113,18.164H3.75c-0.324,0-0.586,0.262-0.586,0.586s0.262,0.586,0.586,0.586h12.363
				c0.324,0,0.586-0.262,0.586-0.586S16.438,18.164,16.113,18.164z"/>
		</g>
	</g>
	<g>
		<g>
			<path fill="#CD4A27" d="M16.527,21.617c-0.109-0.109-0.26-0.172-0.414-0.172s-0.305,0.062-0.414,0.172s-0.172,0.26-0.172,0.414
				s0.062,0.305,0.172,0.414s0.26,0.172,0.414,0.172s0.305-0.062,0.414-0.172s0.172-0.26,0.172-0.414S16.637,21.727,16.527,21.617z"
				/>
		</g>
	</g>
	<g>
		<g>
			<path fill="#CD4A27" d="M13.809,21.445H3.75c-0.324,0-0.586,0.262-0.586,0.586s0.262,0.586,0.586,0.586h10.059
				c0.324,0,0.586-0.262,0.586-0.586S14.133,21.445,13.809,21.445z"/>
		</g>
	</g>
	<g>
		<g>
			<path fill="#CD4A27" d="M12.305,14.883H3.75c-0.324,0-0.586,0.263-0.586,0.586c0,0.324,0.262,0.586,0.586,0.586h8.555
				c0.324,0,0.586-0.262,0.586-0.586C12.891,15.146,12.629,14.883,12.305,14.883z"/>
		</g>
	</g>
</g>
</svg>
