<?xml version="1.0" encoding="utf-8"?>
<!-- Generator: Adobe Illustrator 16.0.0, SVG Export Plug-In . SVG Version: 6.00 Build 0)  -->
<!DOCTYPE svg PUBLIC "-//W3C//DTD SVG 1.1//EN" "http://www.w3.org/Graphics/SVG/1.1/DTD/svg11.dtd">
<svg version="1.1" id="Layer_1" xmlns="http://www.w3.org/2000/svg" xmlns:xlink="http://www.w3.org/1999/xlink" x="0px" y="0px"
	 width="30px" height="30px" viewBox="0 0 30 30" enable-background="new 0 0 30 30" xml:space="preserve">
<g>
	<g>
		<g>
			<path fill="#CD4A27" d="M8.974,8.97c0-0.512-0.415-0.927-0.928-0.928H3.875C3.363,8.043,2.948,8.458,2.947,8.97v4.171
				c0.001,0.513,0.416,0.927,0.928,0.928h4.171c0.513-0.001,0.928-0.415,0.928-0.928V8.97z M3.875,13.141V8.97h4.171l0.001,4.171
				H3.875z"/>
			<path fill="#CD4A27" d="M15.656,8.312c-0.006-0.004-0.013-0.006-0.019-0.011c-0.171-0.166-0.4-0.259-0.639-0.259h-4.171
				c-0.239,0-0.467,0.093-0.64,0.259c-0.005,0.005-0.013,0.006-0.018,0.011c-0.006,0.006-0.008,0.013-0.012,0.019
				C9.993,8.502,9.901,8.731,9.901,8.97v4.171c0,0.239,0.092,0.468,0.258,0.64c0.004,0.005,0.006,0.013,0.012,0.018
				c0.005,0.006,0.013,0.007,0.018,0.011c0.173,0.167,0.4,0.26,0.64,0.26h4.171c0.238,0,0.468-0.093,0.639-0.26
				c0.006-0.004,0.013-0.005,0.019-0.011c0.005-0.005,0.006-0.013,0.012-0.018c0.166-0.172,0.258-0.4,0.259-0.64V8.97
				c-0.001-0.238-0.093-0.468-0.259-0.64C15.662,8.324,15.661,8.317,15.656,8.312z M14.344,8.97L12.913,10.4l-1.43-1.431H14.344z
				 M10.828,9.625l1.43,1.43l-1.43,1.431V9.625z M11.483,13.141l1.43-1.43l1.431,1.43H11.483z M13.568,11.055l1.431-1.43v2.861
				L13.568,11.055z"/>
			<path fill="#CD4A27" d="M8.046,15.458H3.875c-0.512,0.001-0.927,0.416-0.928,0.928v4.171c0.001,0.513,0.416,0.927,0.928,0.928
				h4.171c0.513-0.001,0.928-0.415,0.928-0.928v-4.171C8.974,15.874,8.559,15.459,8.046,15.458z M3.875,20.557v-4.171h4.171
				l0.001,4.171H3.875z"/>
			<path fill="#CD4A27" d="M14.999,15.458h-4.171c-0.513,0.001-0.927,0.416-0.927,0.928v4.171c0,0.513,0.414,0.927,0.927,0.928
				h3.244c0.255,0,0.464-0.208,0.464-0.464s-0.209-0.464-0.464-0.464h-3.244v-4.171h4.171v2.317c0,0.123,0.05,0.24,0.137,0.328
				c0.087,0.087,0.204,0.136,0.327,0.136c0.122,0,0.241-0.049,0.328-0.136c0.087-0.088,0.136-0.205,0.136-0.328v-2.317
				C15.925,15.874,15.511,15.459,14.999,15.458z"/>
			<path fill="#CD4A27" d="M17.779,8.042c-0.511,0.001-0.925,0.416-0.926,0.928v4.171c0.001,0.513,0.415,0.927,0.926,0.928h4.173
				c0.512-0.001,0.926-0.415,0.926-0.928V8.97c0-0.512-0.414-0.927-0.926-0.928H17.779z M17.779,13.141V8.97h4.173l0.001,4.171
				H17.779z"/>
			<path fill="#CD4A27" d="M14.536,22.875H2.483c-0.255-0.001-0.462-0.208-0.462-0.464V6.652h21.784v6.488
				c0,0.256,0.208,0.464,0.464,0.464c0.255,0,0.464-0.208,0.464-0.464v-9.27C24.732,3.104,24.11,2.48,23.342,2.48h-0.927V2.017
				c0-0.513-0.415-0.927-0.927-0.927h-1.391c-0.512,0-0.927,0.414-0.927,0.927V2.48h-4.635V2.017
				c-0.001-0.513-0.415-0.927-0.928-0.927h-1.39c-0.512,0-0.927,0.414-0.928,0.927V2.48H6.656V2.017
				C6.655,1.504,6.24,1.09,5.729,1.09H4.339c-0.512,0-0.927,0.414-0.928,0.927V2.48H2.483c-0.767,0-1.389,0.623-1.39,1.391v18.54
				c0.001,0.768,0.623,1.39,1.39,1.391h12.053c0.255,0,0.463-0.208,0.463-0.464S14.791,22.875,14.536,22.875z M20.098,2.017h1.391
				l0.001,0.926l-0.001,0.002h0.001v0.927h-1.392V2.017L20.098,2.017z M12.219,2.017h1.39v0.926v0.002l0,0v0.927h-1.391
				L12.219,2.017L12.219,2.017z M4.339,2.017h1.391v0.926v0.002l0,0v0.927H4.339V2.017z M2.021,3.871
				c0-0.257,0.207-0.463,0.462-0.464h0.928v0.464c0.001,0.512,0.416,0.926,0.928,0.926h1.391c0.511,0,0.926-0.414,0.927-0.926V3.407
				h4.635v0.464c0.001,0.512,0.416,0.926,0.928,0.926h1.39c0.513,0,0.928-0.414,0.928-0.926V3.407h4.635v0.464
				c0,0.512,0.415,0.926,0.927,0.926h1.391c0.512,0,0.927-0.414,0.928-0.926V3.407h0.926c0.257,0.001,0.464,0.207,0.464,0.464v1.854
				H2.021V3.871z"/>
			<path fill="#CD4A27" d="M25.72,16.837L25.72,16.837l0.354-0.708c0.075-0.147,0.064-0.325-0.026-0.463
				c-0.092-0.139-0.25-0.218-0.415-0.208c-0.166,0.01-0.313,0.107-0.387,0.257l-0.352,0.701c-0.643-0.265-1.322-0.424-2.017-0.471
				v-0.486h0.928c0.256,0,0.464-0.208,0.464-0.464s-0.208-0.464-0.464-0.464h-2.78c-0.257,0-0.464,0.208-0.464,0.464
				s0.207,0.464,0.464,0.464h0.927v0.486c-0.693,0.047-1.374,0.206-2.016,0.471l-0.351-0.701c-0.074-0.149-0.222-0.246-0.388-0.257
				c-0.165-0.01-0.323,0.069-0.415,0.208c-0.091,0.138-0.102,0.315-0.027,0.463l0.354,0.708c-2.517,1.489-3.726,4.477-2.953,7.298
				c0.771,2.82,3.334,4.775,6.259,4.775c2.924,0,5.486-1.955,6.259-4.775C29.446,21.313,28.237,18.326,25.72,16.837z M22.416,27.973
				c-3.072,0-5.562-2.489-5.562-5.562c0-3.071,2.49-5.562,5.562-5.562c3.071,0,5.561,2.49,5.561,5.562
				C27.974,25.481,25.485,27.97,22.416,27.973z"/>
			<path fill="#CD4A27" d="M22.416,17.776c-2.561,0-4.637,2.075-4.637,4.635s2.076,4.636,4.637,4.636
				c2.56,0,4.635-2.076,4.635-4.636C27.048,19.853,24.974,17.778,22.416,17.776z M22.416,26.119c-2.048,0-3.709-1.66-3.709-3.708
				s1.661-3.708,3.709-3.708c2.047,0,3.708,1.66,3.708,3.708C26.12,24.458,24.462,26.117,22.416,26.119z"/>
			<path fill="#CD4A27" d="M22.878,22.22v-2.127c0-0.255-0.206-0.463-0.462-0.463c-0.257,0-0.464,0.208-0.464,0.463v2.318
				c0,0.123,0.049,0.241,0.136,0.328l1.39,1.391c0.183,0.178,0.473,0.176,0.653-0.003c0.181-0.181,0.181-0.471,0.003-0.653
				L22.878,22.22z"/>
		</g>
	</g>
</g>
</svg>
