<?xml version="1.0" encoding="utf-8"?>
<!-- Generator: Adobe Illustrator 16.0.0, SVG Export Plug-In . SVG Version: 6.00 Build 0)  -->
<!DOCTYPE svg PUBLIC "-//W3C//DTD SVG 1.1//EN" "http://www.w3.org/Graphics/SVG/1.1/DTD/svg11.dtd">
<svg version="1.1" id="Layer_1" xmlns="http://www.w3.org/2000/svg" xmlns:xlink="http://www.w3.org/1999/xlink" x="0px" y="0px"
	 width="30px" height="30px" viewBox="0 0 30 30" enable-background="new 0 0 30 30" xml:space="preserve">
<g>
	<g>
		<g>
			<path fill="#CD4A27" d="M24.048,1.231H5.567c-0.766,0-1.386,0.62-1.386,1.386v24.948c0,0.765,0.62,1.386,1.386,1.386h18.48
				c0.765,0,1.386-0.621,1.386-1.386V2.618C25.434,1.852,24.813,1.231,24.048,1.231z M24.51,27.566c0,0.255-0.207,0.462-0.462,0.462
				H5.567c-0.255,0-0.462-0.207-0.462-0.462V2.618c0-0.255,0.207-0.462,0.462-0.462h18.48c0.255,0,0.462,0.207,0.462,0.462V27.566z"
				/>
		</g>
	</g>
	<g>
		<g>
			<path fill="#CD4A27" d="M23.124,6.313H6.492c-0.255,0-0.462,0.207-0.462,0.462v5.544c0,0.255,0.207,0.462,0.462,0.462h16.632
				c0.255,0,0.462-0.207,0.462-0.462V6.775C23.586,6.52,23.379,6.313,23.124,6.313z M22.662,11.857H6.954v-4.62h15.708V11.857z"/>
		</g>
	</g>
	<g>
		<g>
			<path fill="#CD4A27" d="M13.421,3.08h-6.93c-0.255,0-0.462,0.207-0.462,0.462v1.386c0,0.255,0.207,0.462,0.462,0.462h6.93
				c0.255,0,0.462-0.207,0.462-0.462V3.542C13.884,3.286,13.677,3.08,13.421,3.08z M12.959,4.465H6.954V4.003h6.006V4.465z"/>
		</g>
	</g>
	<g>
		<g>
			<path fill="#CD4A27" d="M9.264,13.706H6.492c-0.255,0-0.462,0.207-0.462,0.462v2.772c0,0.255,0.207,0.462,0.462,0.462h2.772
				c0.255,0,0.462-0.207,0.462-0.462v-2.772C9.726,13.912,9.519,13.706,9.264,13.706z M8.802,16.478H6.954v-1.848h1.848V16.478z"/>
		</g>
	</g>
	<g>
		<g>
			<path fill="#CD4A27" d="M13.884,13.706h-2.772c-0.255,0-0.462,0.207-0.462,0.462v2.772c0,0.255,0.207,0.462,0.462,0.462h2.772
				c0.255,0,0.462-0.207,0.462-0.462v-2.772C14.346,13.912,14.139,13.706,13.884,13.706z M13.421,16.478h-1.848v-1.848h1.848V16.478
				z"/>
		</g>
	</g>
	<g>
		<g>
			<path fill="#CD4A27" d="M18.504,13.706h-2.772c-0.255,0-0.462,0.207-0.462,0.462v2.772c0,0.255,0.207,0.462,0.462,0.462h2.772
				c0.255,0,0.462-0.207,0.462-0.462v-2.772C18.966,13.912,18.759,13.706,18.504,13.706z M18.042,16.478h-1.848v-1.848h1.848V16.478
				z"/>
		</g>
	</g>
	<g>
		<g>
			<path fill="#CD4A27" d="M23.124,13.706h-2.772c-0.255,0-0.462,0.207-0.462,0.462v2.772c0,0.255,0.207,0.462,0.462,0.462h2.772
				c0.255,0,0.462-0.207,0.462-0.462v-2.772C23.586,13.912,23.379,13.706,23.124,13.706z M22.662,16.478h-1.848v-1.848h1.848V16.478
				z"/>
		</g>
	</g>
	<g>
		<g>
			<path fill="#CD4A27" d="M9.264,18.326H6.492c-0.255,0-0.462,0.207-0.462,0.462v2.772c0,0.255,0.207,0.462,0.462,0.462h2.772
				c0.255,0,0.462-0.207,0.462-0.462v-2.772C9.726,18.532,9.519,18.326,9.264,18.326z M8.802,21.098H6.954V19.25h1.848V21.098z"/>
		</g>
	</g>
	<g>
		<g>
			<path fill="#CD4A27" d="M13.884,18.326h-2.772c-0.255,0-0.462,0.207-0.462,0.462v2.772c0,0.255,0.207,0.462,0.462,0.462h2.772
				c0.255,0,0.462-0.207,0.462-0.462v-2.772C14.346,18.532,14.139,18.326,13.884,18.326z M13.421,21.098h-1.848V19.25h1.848V21.098z
				"/>
		</g>
	</g>
	<g>
		<g>
			<path fill="#CD4A27" d="M18.504,18.326h-2.772c-0.255,0-0.462,0.207-0.462,0.462v2.772c0,0.255,0.207,0.462,0.462,0.462h2.772
				c0.255,0,0.462-0.207,0.462-0.462v-2.772C18.966,18.532,18.759,18.326,18.504,18.326z M18.042,21.098h-1.848V19.25h1.848V21.098z
				"/>
		</g>
	</g>
	<g>
		<g>
			<path fill="#CD4A27" d="M23.124,18.326h-2.772c-0.255,0-0.462,0.207-0.462,0.462v7.392c0,0.255,0.207,0.462,0.462,0.462h2.772
				c0.255,0,0.462-0.207,0.462-0.462v-7.392C23.586,18.532,23.379,18.326,23.124,18.326z M22.662,25.718h-1.848V19.25h1.848V25.718z
				"/>
		</g>
	</g>
	<g>
		<g>
			<path fill="#CD4A27" d="M9.264,22.946H6.492c-0.255,0-0.462,0.207-0.462,0.462v2.772c0,0.255,0.207,0.462,0.462,0.462h2.772
				c0.255,0,0.462-0.207,0.462-0.462v-2.772C9.726,23.152,9.519,22.946,9.264,22.946z M8.802,25.718H6.954V23.87h1.848V25.718z"/>
		</g>
	</g>
	<g>
		<g>
			<path fill="#CD4A27" d="M13.884,22.946h-2.772c-0.255,0-0.462,0.207-0.462,0.462v2.772c0,0.255,0.207,0.462,0.462,0.462h2.772
				c0.255,0,0.462-0.207,0.462-0.462v-2.772C14.346,23.152,14.139,22.946,13.884,22.946z M13.421,25.718h-1.848V23.87h1.848V25.718z
				"/>
		</g>
	</g>
	<g>
		<g>
			<path fill="#CD4A27" d="M18.504,22.946h-2.772c-0.255,0-0.462,0.207-0.462,0.462v2.772c0,0.255,0.207,0.462,0.462,0.462h2.772
				c0.255,0,0.462-0.207,0.462-0.462v-2.772C18.966,23.152,18.759,22.946,18.504,22.946z M18.042,25.718h-1.848V23.87h1.848V25.718z
				"/>
		</g>
	</g>
</g>
</svg>
