<?xml version="1.0" encoding="utf-8"?>
<!-- Generator: Adobe Illustrator 16.0.0, SVG Export Plug-In . SVG Version: 6.00 Build 0)  -->
<!DOCTYPE svg PUBLIC "-//W3C//DTD SVG 1.1//EN" "http://www.w3.org/Graphics/SVG/1.1/DTD/svg11.dtd">
<svg version="1.1" id="Layer_1" xmlns="http://www.w3.org/2000/svg" xmlns:xlink="http://www.w3.org/1999/xlink" x="0px" y="0px"
	 width="30px" height="30px" viewBox="0 0 30 30" enable-background="new 0 0 30 30" xml:space="preserve">
<g>
	<g>
		<g>
			<path fill="#CD4A27" d="M22.863,7.001h-1.924c-0.281,0-0.51,0.229-0.51,0.509s0.229,0.509,0.51,0.509h1.924
				c0.158,0,0.289,0.129,0.289,0.288v20.271c0,0.158-0.131,0.287-0.289,0.287H6.151c-0.159,0-0.288-0.129-0.288-0.287V8.307
				c0-0.159,0.129-0.288,0.288-0.288h2.167c0.281,0,0.508-0.229,0.508-0.508c0-0.281-0.228-0.51-0.508-0.51H6.151
				c-0.719,0-1.305,0.586-1.305,1.306v20.271c0,0.719,0.585,1.305,1.305,1.305h16.712c0.719,0,1.305-0.586,1.305-1.305V8.307
				C24.168,7.587,23.584,7.001,22.863,7.001z"/>
		</g>
	</g>
	<g>
		<g>
			<path fill="#CD4A27" d="M20.609-0.117h-9.153c-0.135,0-0.264,0.054-0.359,0.149L8.046,3.083C7.951,3.179,7.897,3.308,7.897,3.442
				v6.609c0,0.281,0.228,0.509,0.509,0.509h12.204c0.281,0,0.508-0.228,0.508-0.509v-9.66C21.117,0.11,20.891-0.117,20.609-0.117z
				 M20.102,9.544H8.914V3.653l2.753-2.754h8.435V9.544z"/>
		</g>
	</g>
	<g>
		<g>
			<path fill="#CD4A27" d="M11.457-0.117c-0.281,0-0.509,0.228-0.509,0.509v2.542H8.405c-0.281,0-0.508,0.228-0.508,0.509
				c0,0.28,0.228,0.508,0.508,0.508h3.051c0.281,0,0.509-0.228,0.509-0.508V0.392C11.965,0.11,11.737-0.117,11.457-0.117z"/>
		</g>
	</g>
	<g>
		<g>
			<path fill="#CD4A27" d="M9.422,9.544H7.389c-0.281,0-0.508,0.228-0.508,0.508c0,0.281,0.228,0.509,0.508,0.509h2.034
				c0.281,0,0.508-0.228,0.508-0.509C9.931,9.771,9.703,9.544,9.422,9.544z"/>
		</g>
	</g>
	<g>
		<g>
			<path fill="#CD4A27" d="M21.627,9.544h-2.035c-0.281,0-0.508,0.228-0.508,0.508c0,0.281,0.227,0.509,0.508,0.509h2.035
				c0.279,0,0.508-0.228,0.508-0.509C22.135,9.771,21.906,9.544,21.627,9.544z"/>
		</g>
	</g>
	<g>
		<g>
			<path fill="#CD4A27" d="M20.102,12.086H8.405c-0.281,0-0.508,0.228-0.508,0.509v3.051c0,0.28,0.228,0.509,0.508,0.509h11.696
				c0.279,0,0.508-0.229,0.508-0.509v-3.051C20.609,12.313,20.381,12.086,20.102,12.086z M19.592,15.138H8.914v-2.035h10.678V15.138
				z"/>
		</g>
	</g>
	<g>
		<g>
			<path fill="#CD4A27" d="M10.948,17.68H7.897c-0.281,0-0.508,0.228-0.508,0.508v2.034c0,0.28,0.228,0.509,0.508,0.509h3.051
				c0.281,0,0.508-0.229,0.508-0.509v-2.034C11.457,17.907,11.229,17.68,10.948,17.68z M10.439,19.713H8.405v-1.017h2.034V19.713
				L10.439,19.713z"/>
		</g>
	</g>
	<g>
		<g>
			<path fill="#CD4A27" d="M20.609,17.68h-3.051c-0.281,0-0.508,0.228-0.508,0.508v2.034c0,0.28,0.227,0.509,0.508,0.509h3.051
				c0.281,0,0.508-0.229,0.508-0.509v-2.034C21.117,17.907,20.891,17.68,20.609,17.68z M20.102,19.713h-2.035v-1.017h2.035V19.713z"
				/>
		</g>
	</g>
	<g>
		<g>
			<path fill="#CD4A27" d="M15.524,17.68h-2.542c-0.281,0-0.508,0.228-0.508,0.508v2.034c0,0.28,0.228,0.509,0.508,0.509h2.543
				c0.279,0,0.508-0.229,0.508-0.509v-2.034C16.033,17.907,15.804,17.68,15.524,17.68z M15.015,19.713H13.49v-1.017h1.525V19.713z"
				/>
		</g>
	</g>
	<g>
		<g>
			<path fill="#CD4A27" d="M10.948,21.747H7.897c-0.281,0-0.508,0.228-0.508,0.509v2.033c0,0.281,0.228,0.509,0.508,0.509h3.051
				c0.281,0,0.508-0.228,0.508-0.509v-2.033C11.457,21.975,11.229,21.747,10.948,21.747z M10.439,23.781H8.405v-1.018h2.034V23.781
				L10.439,23.781z"/>
		</g>
	</g>
	<g>
		<g>
			<path fill="#CD4A27" d="M20.609,21.747h-7.627c-0.281,0-0.508,0.228-0.508,0.509v2.033c0,0.281,0.228,0.509,0.508,0.509h7.627
				c0.281,0,0.508-0.228,0.508-0.509v-2.033C21.117,21.975,20.891,21.747,20.609,21.747z M20.102,23.781H13.49v-1.018h6.611V23.781z
				"/>
		</g>
	</g>
	<g>
		<g>
			<path fill="#CD4A27" d="M20.609,25.814H7.897c-0.281,0-0.508,0.229-0.508,0.509s0.228,0.509,0.508,0.509h12.712
				c0.281,0,0.508-0.229,0.508-0.509S20.891,25.814,20.609,25.814z"/>
		</g>
	</g>
</g>
</svg>
