<?xml version="1.0" encoding="utf-8"?>
<!-- Generator: Adobe Illustrator 16.0.0, SVG Export Plug-In . SVG Version: 6.00 Build 0)  -->
<!DOCTYPE svg PUBLIC "-//W3C//DTD SVG 1.1//EN" "http://www.w3.org/Graphics/SVG/1.1/DTD/svg11.dtd">
<svg version="1.1" id="Layer_1" xmlns="http://www.w3.org/2000/svg" xmlns:xlink="http://www.w3.org/1999/xlink" x="0px" y="0px"
	 width="30px" height="30px" viewBox="0 0 30 30" enable-background="new 0 0 30 30" xml:space="preserve">
<g>
	<g>
		<g>
			<path fill="#CD4A27" d="M15,7.786c-5.178,0-9.39,4.213-9.39,9.39c0,5.178,4.212,9.391,9.39,9.391s9.39-4.213,9.39-9.391
				C24.39,11.999,20.178,7.786,15,7.786z M15.608,25.327v-0.784c0-0.336-0.272-0.607-0.608-0.607s-0.608,0.271-0.608,0.607v0.784
				c-4.023-0.298-7.245-3.52-7.543-7.542h0.784c0.336,0,0.608-0.273,0.608-0.608c0-0.336-0.272-0.608-0.608-0.608H6.849
				c0.298-4.022,3.52-7.245,7.543-7.542V9.81c0,0.336,0.272,0.607,0.608,0.607s0.608-0.271,0.608-0.607V9.026
				c4.022,0.297,7.245,3.52,7.542,7.542h-0.783c-0.336,0-0.608,0.272-0.608,0.608c0,0.335,0.272,0.608,0.608,0.608h0.783
				C22.854,21.808,19.631,25.029,15.608,25.327z"/>
		</g>
	</g>
	<g>
		<g>
			<path fill="#CD4A27" d="M15.608,4.367V3.578h0.977c0.336,0,0.608-0.273,0.608-0.608V0.608C17.193,0.272,16.921,0,16.585,0h-3.171
				c-0.336,0-0.608,0.272-0.608,0.608V2.97c0,0.335,0.272,0.608,0.608,0.608h0.978v0.789C7.602,4.687,2.176,10.31,2.176,17.176
				C2.176,24.248,7.929,30,15,30c7.07,0,12.824-5.752,12.824-12.824C27.824,10.31,22.397,4.687,15.608,4.367z M14.022,2.361V1.217
				h1.954v1.145H14.022z M15,28.72c-6.365,0-11.543-5.179-11.543-11.544C3.457,10.812,8.635,5.634,15,5.634
				s11.543,5.178,11.543,11.543C26.543,23.541,21.365,28.72,15,28.72z"/>
		</g>
	</g>
	<g>
		<g>
			<path fill="#CD4A27" d="M19.477,12.7c-0.179-0.18-0.45-0.229-0.682-0.125l-5.564,2.529c-0.005,0.003-0.009,0.006-0.014,0.008
				c-0.009,0.004-0.019,0.009-0.027,0.014s-0.017,0.01-0.024,0.015s-0.017,0.01-0.024,0.015c-0.009,0.007-0.019,0.014-0.027,0.021
				c-0.006,0.005-0.012,0.009-0.018,0.015c-0.03,0.023-0.058,0.052-0.083,0.082c-0.005,0.006-0.009,0.012-0.014,0.018
				c-0.007,0.01-0.014,0.018-0.021,0.027c-0.005,0.008-0.01,0.017-0.015,0.025c-0.005,0.008-0.01,0.016-0.015,0.023
				c-0.005,0.009-0.01,0.018-0.014,0.027c-0.003,0.005-0.005,0.01-0.007,0.014l-2.529,5.564c-0.105,0.231-0.056,0.503,0.123,0.682
				c0.117,0.116,0.272,0.179,0.431,0.179c0.085,0,0.171-0.018,0.251-0.055l5.565-2.529c0.004-0.002,0.009-0.005,0.014-0.007
				c0.009-0.005,0.018-0.009,0.027-0.015c0.008-0.004,0.016-0.009,0.023-0.014s0.017-0.01,0.025-0.016s0.018-0.014,0.026-0.02
				c0.007-0.005,0.013-0.01,0.019-0.015c0.029-0.024,0.058-0.052,0.082-0.082c0.006-0.006,0.01-0.013,0.015-0.019
				c0.007-0.01,0.014-0.018,0.02-0.027c0.006-0.008,0.011-0.016,0.016-0.024c0.005-0.008,0.01-0.016,0.015-0.023
				c0.004-0.009,0.01-0.019,0.014-0.028c0.002-0.004,0.005-0.009,0.007-0.014l2.529-5.563C19.705,13.15,19.656,12.879,19.477,12.7z
				 M12.178,19.998l1.495-3.289l1.794,1.795L12.178,19.998z M16.327,17.644l-1.794-1.794l3.289-1.495L16.327,17.644z"/>
		</g>
	</g>
</g>
</svg>
