<svg xmlns="http://www.w3.org/2000/svg" width="62.598" height="62.598" viewBox="0 0 62.598 62.598"><path d="M31.3,0A31.3,31.3,0,1,0,62.6,31.3,31.3,31.3,0,0,0,31.3,0Zm.663,49.522h-.008A18.726,18.726,0,0,1,23,47.242l-9.93,2.6,2.658-9.7a18.734,18.734,0,1,1,16.233,9.38Zm0,0" fill="#51c41e"/><path d="M149.648,124.469a15.572,15.572,0,0,0-13.2,23.847l.37.589-1.573,5.744,5.893-1.545.569.337a15.545,15.545,0,0,0,7.925,2.17h.006a15.571,15.571,0,0,0,.007-31.141Zm9.158,22.256c-.39,1.093-2.26,2.09-3.159,2.225a6.424,6.424,0,0,1-2.948-.185,27.029,27.029,0,0,1-2.669-.986c-4.7-2.027-7.762-6.753-8-7.065a9.1,9.1,0,0,1-1.911-4.841,5.247,5.247,0,0,1,1.638-3.9,1.721,1.721,0,0,1,1.248-.585c.312,0,.624,0,.9.016s.673-.109,1.053.8c.39.937,1.326,3.24,1.443,3.474a.863.863,0,0,1,.039.82,13.336,13.336,0,0,1-1.17,1.6c-.208.257-.479.487-.205.955a14.109,14.109,0,0,0,2.6,3.241,12.8,12.8,0,0,0,3.764,2.322c.468.234.741.195,1.014-.117s1.17-1.366,1.482-1.835.624-.39,1.053-.234,2.73,1.288,3.2,1.522.78.352.9.547a3.9,3.9,0,0,1-.273,2.225Zm0,0" transform="translate(-117.679 -109.251)" fill="#51c41e"/></svg>